<?xml version="1.0" encoding="utf-8"?>
<!-- Generator: Adobe Illustrator 27.8.0, SVG Export Plug-In . SVG Version: 6.00 Build 0)  -->
<svg version="1.1" id="Layer_1" xmlns="http://www.w3.org/2000/svg" xmlns:xlink="http://www.w3.org/1999/xlink" x="0px" y="0px"
	 viewBox="0 0 512 512" style="enable-background:new 0 0 512 512;" xml:space="preserve">
<style type="text/css">
	.st0{fill:none;stroke:#000000;stroke-width:17;stroke-miterlimit:10;}
</style>
<g>
	<path d="M293.76,24.04l56.22,56.22l12.02,12.02l12.02-12.02l14.77-14.77l57.48,57.48l-14.77,14.77l-12.02,12.02l12.02,12.02
		l56.5,56.5l-65.73,65.73l-4.94,4.94l-0.04,6.99c-0.14,26.69-5.57,52.64-16.11,77.15c-10.2,23.69-24.72,45.01-43.16,63.35
		c-18.44,18.35-39.83,32.77-63.57,42.85C269.86,489.71,243.86,495,217.14,495c-26.8,0-52.88-5.32-77.52-15.82
		c-23.81-10.14-45.24-24.65-63.7-43.1c-18.46-18.46-32.96-39.89-43.1-63.7C22.32,347.74,17,321.66,17,294.86
		c0-26.72,5.29-52.72,15.72-77.29c10.08-23.74,24.5-45.14,42.86-63.58c18.35-18.44,39.67-32.96,63.37-43.15
		c24.51-10.55,50.47-15.96,77.16-16.1l6.99-0.04l4.94-4.94L293.76,24.04 M293.76,0l-77.73,77.73C97.41,78.34,0,176.11,0,294.86
		C0,413.98,98.02,512,217.14,512c118.73,0,216.49-97.38,217.13-215.97l77.75-77.75l-68.52-68.52l26.79-26.79l-81.52-81.52
		l-26.79,26.79L293.76,0L293.76,0z"/>
</g>
<line class="st0" x1="208.5" y1="79.5" x2="208.5" y2="311.5"/>
<line class="st0" x1="200.5" y1="303.5" x2="428.5" y2="303.5"/>
<g>
	<line class="st0" x1="290.5" y1="15.5" x2="208.5" y2="97.5"/>
</g>
<line class="st0" x1="496" y1="222" x2="412" y2="306"/>
<g>
	<line class="st0" x1="384.5" y1="58.5" x2="207.5" y2="235.5"/>
</g>
<line class="st0" x1="455.5" y1="125.5" x2="278" y2="303"/>
</svg>
